<svg width="26.000000" height="23.000000" viewBox="0 0 26 23" fill="none" xmlns="http://www.w3.org/2000/svg" xmlns:xlink="http://www.w3.org/1999/xlink">
	<desc>
			Created with Pixso.
	</desc>
	<defs/>
	<path id="Vector" d="M8 22C7.44 22 7 21.55 7 21C7 20.44 7.44 20 8 20C8.55 20 9 20.44 9 21C9 21.55 8.55 22 8 22ZM22 22C21.44 22 21 21.55 21 21C21 20.44 21.44 20 22 20C22.55 20 23 20.44 23 21C23 21.55 22.55 22 22 22ZM0 0L4 0L7 17L23 17M7 11.66L22.59 11.66C22.7 11.66 22.81 11.62 22.9 11.55C22.99 11.48 23.05 11.37 23.08 11.26L24.88 2.26C24.89 2.19 24.89 2.11 24.87 2.04C24.85 1.97 24.82 1.9 24.77 1.84C24.73 1.79 24.67 1.74 24.6 1.71C24.53 1.68 24.46 1.66 24.38 1.66L5 1.66" stroke="#000000" stroke-opacity="1.000000" stroke-width="1.500000" stroke-linejoin="round"/>
</svg>
