<svg width="18.000000" height="23.000000" viewBox="0 0 18 23" fill="none" xmlns="http://www.w3.org/2000/svg" xmlns:xlink="http://www.w3.org/1999/xlink">
	<desc>
			Created with Pixso.
	</desc>
	<defs/>
	<path id="Vector" d="M17 22L17 19.33C17 17.91 16.52 16.56 15.67 15.56C14.82 14.56 13.66 14 12.46 14L4.53 14C3.33 14 2.17 14.56 1.32 15.56C0.47 16.56 0 17.91 0 19.33L0 22M9.5 9C7.01 9 5 6.98 5 4.5C5 2.01 7.01 0 9.5 0C11.98 0 14 2.01 14 4.5C14 6.98 11.98 9 9.5 9Z" stroke="#000000" stroke-opacity="1.000000" stroke-width="1.500000" stroke-linejoin="round" stroke-linecap="round"/>
</svg>
